<?xml version="1.0" encoding="iso-8859-1"?>
<!-- Generator: Adobe Illustrator 19.0.0, SVG Export Plug-In . SVG Version: 6.00 Build 0)  -->
<svg version="1.1" id="Layer_1" xmlns="http://www.w3.org/2000/svg" xmlns:xlink="http://www.w3.org/1999/xlink" x="0px" y="0px"
	 viewBox="0 0 512.002 512.002" style="enable-background:new 0 0 512.002 512.002;" xml:space="preserve">
<g>
	<path style="fill:#EFC7B6;" d="M98.066,8.189c13.54,0,24.509,10.969,24.509,24.509s-10.969,24.509-24.509,24.509
		c-13.529,0-24.509-10.969-24.509-24.509S84.537,8.189,98.066,8.189z"/>
	<path style="fill:#EFC7B6;" d="M413.959,76.269c13.54,0,24.509,10.969,24.509,24.509s-10.969,24.509-24.509,24.509
		c-13.529,0-24.509-10.969-24.509-24.509S400.43,76.269,413.959,76.269z"/>
	<path style="fill:#EFC7B6;" d="M503.716,400.223c1.057,8.965-5.359,17.091-14.313,18.147c0,0-6.623,0.773-18.256,2.135v-32.896
		l14.433-1.699C494.544,384.853,502.66,391.269,503.716,400.223z"/>
	<path style="fill:#EFC7B6;" d="M389.45,397.216v32.896c-10.969,1.285-22.516,2.647-34.498,4.052v-32.886L389.45,397.216z"/>
	<path style="fill:#EFC7B6;" d="M273.245,410.887v32.886c-11.481,1.34-23.017,2.701-34.487,4.052V414.95L273.245,410.887z"/>
	<path style="fill:#EFC7B6;" d="M157.051,424.557v32.864c-11.993,1.405-23.55,2.756-34.498,4.041V428.62L157.051,424.557z"/>
	<path style="fill:#EFC7B6;" d="M40.857,438.228v32.82c-10.392,1.209-16.296,1.895-16.361,1.895c-8.17,0-15.228-6.111-16.209-14.433
		c-1.057-8.965,5.359-17.08,14.313-18.137L40.857,438.228z"/>
	<path style="fill:#EFC7B6;" d="M40.857,180.634v32.896l-18.256-2.146c-8.954-1.046-15.37-9.172-14.313-18.137
		c1.057-8.954,9.172-15.37,18.137-14.313L40.857,180.634z"/>
	<polygon style="fill:#EFC7B6;" points="157.051,194.304 157.051,227.201 122.554,223.148 122.554,190.241 	"/>
	<polygon style="fill:#EFC7B6;" points="273.245,207.975 273.245,240.871 238.758,236.819 238.758,203.912 	"/>
	<polygon style="fill:#EFC7B6;" points="389.45,221.645 389.45,254.542 354.953,250.49 354.953,217.582 	"/>
	<path style="fill:#EFC7B6;" d="M489.403,233.399c8.954,1.057,15.37,9.172,14.313,18.137c-0.98,8.311-8.039,14.433-16.209,14.433
		c-0.632,0-16.361-1.808-16.361-1.808v-32.907L489.403,233.399z"/>
</g>
<path style="fill:#AECE71;" d="M389.45,188.956v273.846h81.696V188.956L389.45,188.956L389.45,188.956z"/>
<path style="fill:#EEC278;" d="M273.245,175.285v301.187h81.707V175.285L273.245,175.285L273.245,175.285z"/>
<path style="fill:#EFA7B7;" d="M157.051,161.615v328.528h81.707V161.615H157.051z"/>
<path style="fill:#EE5F80;" d="M40.857,147.955v355.859h81.696V147.955H40.857z"/>
<g>
	<circle style="fill:#700019;" cx="81.709" cy="449.876" r="8.17"/>
	<circle style="fill:#700019;" cx="81.709" cy="201.889" r="8.17"/>
	<circle style="fill:#700019;" cx="197.903" cy="436.205" r="8.17"/>
	<circle style="fill:#700019;" cx="197.903" cy="215.559" r="8.17"/>
	<circle style="fill:#700019;" cx="314.097" cy="422.535" r="8.17"/>
	<circle style="fill:#700019;" cx="314.097" cy="229.23" r="8.17"/>
	<circle style="fill:#700019;" cx="430.302" cy="408.864" r="8.17"/>
	<circle style="fill:#700019;" cx="430.302" cy="242.901" r="8.17"/>
	<circle style="fill:#700019;" cx="81.709" cy="449.876" r="8.17"/>
	<circle style="fill:#700019;" cx="81.709" cy="201.889" r="8.17"/>
	<circle style="fill:#700019;" cx="197.903" cy="436.205" r="8.17"/>
	<circle style="fill:#700019;" cx="197.903" cy="215.559" r="8.17"/>
	<circle style="fill:#700019;" cx="314.097" cy="422.535" r="8.17"/>
	<circle style="fill:#700019;" cx="314.097" cy="229.23" r="8.17"/>
	<circle style="fill:#700019;" cx="430.302" cy="408.864" r="8.17"/>
	<circle style="fill:#700019;" cx="430.302" cy="242.901" r="8.17"/>
	<path style="fill:#700019;" d="M382.318,92.609H98.07c-4.512,0-8.17,3.658-8.17,8.17s3.658,8.17,8.17,8.17h284.248
		c3.637,14.079,16.445,24.509,31.645,24.509c18.019,0,32.679-14.66,32.679-32.679S431.981,68.1,413.962,68.1
		C398.764,68.1,385.955,78.53,382.318,92.609z M430.302,100.778c0,9.009-7.33,16.339-16.339,16.339
		c-9.009,0-16.339-7.33-16.339-16.339s7.33-16.339,16.339-16.339C422.972,84.439,430.302,91.769,430.302,100.778z"/>
	<path style="fill:#700019;" d="M484.624,377.793l-5.305,0.624V273.312c7.332,0.825,7.756,0.826,8.189,0.826
		c12.413,0,22.87-9.306,24.322-21.647c0.765-6.502-1.048-12.912-5.105-18.052c-4.056-5.138-9.871-8.39-16.373-9.154l-11.032-1.298
		v-35.027c0-4.512-3.658-8.17-8.17-8.17h-81.701c-4.512,0-8.17,3.658-8.17,8.17v23.494l-18.157-2.136V175.29
		c0-4.512-3.658-8.17-8.17-8.17h-81.701c-4.512,0-8.17,3.658-8.17,8.17v23.493l-18.158-2.136V161.62c0-4.512-3.658-8.17-8.17-8.17
		h-81.701c-4.512,0-8.17,3.658-8.17,8.17v23.492l-18.157-2.136V147.95c0-4.512-3.658-8.17-8.17-8.17H40.853
		c-4.512,0-8.17,3.658-8.17,8.17v23.492l-5.309-0.624c-13.422-1.572-25.624,8.062-27.203,21.479
		c-0.765,6.502,1.048,12.912,5.105,18.052c4.056,5.138,9.871,8.39,16.373,9.154l11.032,1.298v210.163l-11.033,1.298
		c-13.42,1.579-23.055,13.784-21.476,27.205c1.452,12.342,11.908,21.648,24.322,21.648c0.448,0,0.561-0.001,8.189-0.891v23.588
		c0,4.512,3.658,8.17,8.17,8.17h81.701c4.512,0,8.17-3.658,8.17-8.17v-35.082l18.157-2.132v23.543c0,4.512,3.658,8.17,8.17,8.17
		h81.701c4.512,0,8.17-3.658,8.17-8.17v-35.058l18.158-2.133v23.521c0,4.512,3.658,8.17,8.17,8.17h81.701
		c4.512,0,8.17-3.658,8.17-8.17v-35.041l18.157-2.134v23.506c0,4.512,3.658,8.17,8.17,8.17h81.701c4.512,0,8.17-3.658,8.17-8.17
		v-35.029l11.032-1.297c6.502-0.766,12.317-4.016,16.373-9.154c4.058-5.138,5.87-11.55,5.105-18.051
		C510.252,385.856,498.045,376.221,484.624,377.793z M488.442,241.513c2.168,0.255,4.107,1.339,5.458,3.052
		c1.353,1.712,1.956,3.85,1.701,6.017c-0.474,4.029-3.82,7.088-7.836,7.213c-1.075-0.101-4.589-0.491-8.447-0.927v-16.43
		L488.442,241.513z M363.121,259.674l18.157,2.136v128.141l-18.157,2.136V259.674z M381.278,228.905v16.454l-18.157-2.136v-16.455
		L381.278,228.905z M265.081,215.234v16.455l-18.158-2.136v-16.455L265.081,215.234z M148.882,201.564v16.454l-18.157-2.136v-16.454
		L148.882,201.564z M23.56,203.275c-2.168-0.255-4.107-1.339-5.458-3.052c-1.353-1.712-1.956-3.85-1.701-6.017
		c0.526-4.472,4.59-7.685,9.069-7.16l7.214,0.849v16.454L23.56,203.275z M24.125,464.767c-3.966-0.179-7.255-3.218-7.724-7.21
		c-0.526-4.474,2.686-8.542,7.16-9.069l9.123-1.073v16.359C27.077,464.428,24.925,464.677,24.125,464.767z M114.385,495.644H49.022
		V156.119h65.361v207.14c0,4.512,3.658,8.17,8.17,8.17s8.17-3.658,8.17-8.17V232.334l18.157,2.136v182.822l-18.157,2.136v-23.492
		c0-4.512-3.658-8.17-8.17-8.17s-8.17,3.658-8.17,8.17v99.707H114.385z M130.724,452.281v-16.399l18.157-2.136v16.405
		L130.724,452.281z M230.583,481.974h-65.361V169.79h65.361V481.974z M246.923,438.635v-16.424l18.158-2.136v16.427L246.923,438.635
		z M346.782,468.305H281.42V306.234c0-4.512-3.658-8.17-8.17-8.17s-8.17,3.658-8.17,8.17v97.389l-18.158,2.136V246.005l18.158,2.136
		v25.414c0,4.512,3.658,8.17,8.17,8.17s8.17-3.658,8.17-8.17v-90.096h65.361V468.305z M363.121,424.981V408.54l18.157-2.136v16.443
		L363.121,424.981z M462.98,454.635h-65.361V197.129h65.361V454.635z M493.902,407.199c-1.353,1.713-3.291,2.797-5.457,3.052
		l-9.124,1.073V394.87l7.211-0.849c4.468-0.523,8.547,2.686,9.073,7.16C495.858,403.349,495.254,405.486,493.902,407.199z"/>
	<path style="fill:#700019;" d="M98.07,65.376c15.199,0,28.008-10.43,31.645-24.509h284.248c4.512,0,8.17-3.658,8.17-8.17
		s-3.658-8.17-8.17-8.17H129.713c-3.637-14.079-16.445-24.509-31.645-24.509c-18.019,0-32.679,14.66-32.679,32.679
		S80.051,65.376,98.07,65.376z M98.07,16.359c9.009,0,16.339,7.33,16.339,16.339s-7.33,16.339-16.339,16.339
		S81.73,41.707,81.73,32.698S89.06,16.359,98.07,16.359z"/>
</g>
<g>
</g>
<g>
</g>
<g>
</g>
<g>
</g>
<g>
</g>
<g>
</g>
<g>
</g>
<g>
</g>
<g>
</g>
<g>
</g>
<g>
</g>
<g>
</g>
<g>
</g>
<g>
</g>
<g>
</g>
</svg>
